<?xml version="1.0" encoding="utf-8"?>
<svg xmlns="http://www.w3.org/2000/svg" xmlns:xlink="http://www.w3.org/1999/xlink" viewBox="0 0 32 32" style="enable-background:new 0 0 32 32;">


<style type="text/css">
	.st0{fill:var(--bg-color);}
	.st1{fill:var(--main-color);}
</style>


<rect x="0" class="st0" width="32" height="32"/>
	<path class="st1" d="M18.1,5.2l-7.2,2.6c-0.1,0-0.2,0.1-0.2,0.3V10c0,0.2,0.2,0.3,0.4,0.3l7.8-2.8c0.1-0.1,0.2-0.2,0.2-0.3
	l-0.6-1.7C18.4,5.3,18.3,5.2,18.1,5.2z"/>
	<path class="st1" d="M21.2,21.2c0.2,0.9,0,1.8-0.4,2.7c-0.4,0.9-1,1.6-1.7,2.1c-0.8,0.5-1.7,0.8-2.7,0.8H2.2
	c-0.1,0-0.3-0.1-0.3-0.3v-3.8c0-0.1,0.1-0.3,0.3-0.3h13.9c0.2,0,0.4-0.1,0.5-0.2c0.1-0.1,0.2-0.3,0.2-0.5s-0.1-0.4-0.2-0.5
	l-5.8-6.1c0,0-0.1-0.1-0.1-0.2v-3.8c0-0.1,0.1-0.2,0.2-0.2l9.1-3.5c0.1-0.1,0.3,0,0.3,0.2l1.2,3.3c0.1,0.1,0,0.3-0.1,0.3l-6.1,2.3
	c-0.2,0.1-0.2,0.3-0.1,0.4l4.5,4.7C20.6,19.4,21,20.2,21.2,21.2z"/>
	<path class="st1" d="M1.6,22.7v3.8c0,0.2-0.1,0.3-0.3,0.3H0v-4.4h1.3C1.4,22.4,1.6,22.5,1.6,22.7z"/>
</svg>
